<?xml version="1.0" encoding="UTF-8"?>
<!DOCTYPE svg PUBLIC "-//W3C//DTD SVG 1.1//EN" "http://www.w3.org/Graphics/SVG/1.1/DTD/svg11.dtd">
<!-- Creator: CorelDRAW -->
<svg xmlns="http://www.w3.org/2000/svg" xml:space="preserve" width="6.82666in" height="6.82666in" style="shape-rendering:geometricPrecision; text-rendering:geometricPrecision; image-rendering:optimizeQuality; fill-rule:evenodd; clip-rule:evenodd"
viewBox="0 0 6.82666 6.82666"
 xmlns:xlink="http://www.w3.org/1999/xlink">
 <defs>
  <style type="text/css">
   <![CDATA[
    .fil5 {fill:none}
    .fil1 {fill:#63CBE5}
    .fil2 {fill:#AED581}
    .fil4 {fill:#EBE5DF}
    .fil3 {fill:#F45A52}
    .fil0 {fill:#333333;fill-rule:nonzero}
   ]]>
  </style>
 </defs>
 <g id="Layer_x0020_1">
  <metadata id="CorelCorpID_0Corel-Layer"/>
  <path class="fil0" d="M3.41333 0.906661c0.692185,0 1.31886,0.280575 1.77247,0.734197 0.453622,0.453614 0.734197,1.08029 0.734197,1.77247 0,0.692185 -0.280575,1.31886 -0.734197,1.77247 -0.453614,0.453622 -1.08029,0.734197 -1.77247,0.734197 -0.692185,0 -1.31886,-0.280575 -1.77247,-0.734197 -0.453622,-0.453614 -0.734197,-1.08029 -0.734197,-1.77247 0,-0.692185 0.280575,-1.31886 0.734197,-1.77247 0.453614,-0.453622 1.08029,-0.734197 1.77247,-0.734197zm1.62164 0.885031c-0.415,-0.415004 -0.988339,-0.671693 -1.62164,-0.671693 -0.633299,0 -1.20664,0.256689 -1.62164,0.671693 -0.415004,0.415 -0.671693,0.988339 -0.671693,1.62164 0,0.633299 0.256689,1.20664 0.671693,1.62164 0.415,0.415004 0.988339,0.671693 1.62164,0.671693 0.633299,0 1.20664,-0.256689 1.62164,-0.671693 0.415004,-0.415 0.671693,-0.988339 0.671693,-1.62164 0,-0.633299 -0.256689,-1.20664 -0.671693,-1.62164z"/>
  <polygon class="fil0" points="3.52,1.01333 3.52,3.52 3.52,3.58104 3.46625,3.61208 1.44514,4.77896 1.33931,4.5948 3.30666,3.45895 3.30666,1.01333 "/>
  <polygon class="fil0" points="3.46625,3.42791 5.48767,4.59498 5.38183,4.77915 3.36041,3.61208 "/>
  <polygon class="fil0" points="3.41496,3.42791 5.49375,2.22773 5.59958,2.41189 3.5208,3.61208 "/>
  <path class="fil1" d="M5.29285 4.72777l-1.87952 -1.08514 -1.87952 1.08514c0.0769646,0.109846 0.163311,0.212634 0.257878,0.307201 0.415,0.415004 0.988339,0.671693 1.62164,0.671693 0.633299,0 1.20664,-0.256689 1.62164,-0.671693 0.0945669,-0.0945669 0.180913,-0.197354 0.257878,-0.307201z"/>
  <path class="fil2" d="M3.65302 3.53574l1.75363 1.01246c0.190929,-0.334634 0.30002,-0.722012 0.30002,-1.13487 0,-0.337213 -0.0727756,-0.657421 -0.20348,-0.94578l-1.85017 1.06819z"/>
  <path class="fil3" d="M3.52 3.36727l1.88645 -1.08914c-0.101909,-0.178547 -0.227118,-0.342071 -0.371484,-0.486437 -0.391571,-0.391575 -0.924106,-0.642205 -1.51497,-0.669256l0 2.24483z"/>
  <path class="fil4" d="M3.30666 3.45895l0 -2.33651c-0.590862,0.0270512 -1.1234,0.277681 -1.51497,0.669256 -0.415004,0.415 -0.671693,0.988339 -0.671693,1.62164 0,0.412858 0.109091,0.800232 0.30002,1.13487l1.88664 -1.08925z"/>
 </g>
 <rect class="fil5" width="6.82666" height="6.82666"/>
</svg>
